<?xml version="1.0" encoding="UTF-8"?>
<svg version="1.1" xmlns="http://www.w3.org/2000/svg" width="512" height="512">
<path d="M0 0 C1.11274144 -0.00644889 2.22548289 -0.01289778 3.37194377 -0.0195421 C5.19789436 -0.01489629 5.19789436 -0.01489629 7.06073284 -0.01015663 C9.00652871 -0.0169533 9.00652871 -0.0169533 10.99163359 -0.02388728 C14.590618 -0.03612307 18.1895095 -0.03585614 21.78850996 -0.03349853 C25.6706982 -0.0330905 29.55285659 -0.04412811 33.43503094 -0.05361366 C41.0404224 -0.07022786 48.64578285 -0.0757234 56.25119094 -0.07683842 C62.43331168 -0.0777887 68.6154222 -0.08189803 74.79753971 -0.08823967 C92.32481289 -0.10585331 109.85206157 -0.11507836 127.37934367 -0.11357872 C128.32427946 -0.11349881 129.26921525 -0.1134189 130.24278545 -0.11333656 C131.18887496 -0.1132548 132.13496447 -0.11317304 133.10972335 -0.1130888 C148.44264392 -0.11227589 163.77546626 -0.1314145 179.10835842 -0.1596133 C194.85189512 -0.18833884 210.5953839 -0.20215377 226.33894747 -0.20042574 C235.17782914 -0.19976172 244.01660783 -0.20525929 252.85546589 -0.22678185 C260.38113367 -0.24498932 267.90665181 -0.24934458 275.43233208 -0.235763 C279.27134284 -0.22923108 283.11006646 -0.22912394 286.94904995 -0.2464695 C291.11287855 -0.26508914 295.2760418 -0.25265164 299.43988323 -0.23720741 C300.65049146 -0.24749454 301.86109969 -0.25778167 303.10839301 -0.26838052 C311.06377952 -0.20308273 316.5315253 0.83156007 322.682971 6.22211266 C323.22179913 6.87308922 323.76062725 7.52406578 324.3157835 8.19476891 C324.87008038 8.84316734 325.42437725 9.49156578 325.995471 10.15961266 C329.3412163 15.01546462 329.70963173 19.28817652 329.5657835 25.06976891 C329.55676006 25.76264 329.54773663 26.45551109 329.53843975 27.16937828 C329.51504507 28.86549286 329.47917991 30.56142761 329.4407835 32.25726891 C330.9257835 32.18765953 330.9257835 32.18765953 332.4407835 32.11664391 C346.80311994 31.63644421 346.80311994 31.63644421 352.4407835 36.25726891 C357.18350854 40.78269778 361.07648534 45.18381826 361.68129253 51.94655418 C361.67685131 52.91252022 361.67241009 53.87848625 361.66783428 54.87372398 C361.66768322 55.97448769 361.66753216 57.07525139 361.66737652 58.20937157 C361.65705395 59.386623 361.64673138 60.56387444 361.636096 61.77680016 C361.63185116 63.59736176 361.63185116 63.59736176 361.62752056 65.45470238 C361.61633659 69.32649202 361.5912348 73.19804932 361.5657835 77.06976891 C361.55575142 79.69671869 361.54662597 82.3236721 361.53843975 84.95062828 C361.51640304 91.38625427 361.48294291 97.82174498 361.4407835 104.25726891 C362.47138897 104.23986656 363.50199444 104.22246422 364.56383038 104.20453453 C365.92906066 104.19045999 367.29429537 104.17681051 368.6595335 104.16351891 C369.67612041 104.14466637 369.67612041 104.14466637 370.71324444 104.12543297 C377.55427494 104.07549844 381.5094799 105.46026806 386.401721 110.12836266 C391.79870865 115.95490647 393.68696221 120.37152735 393.70820904 128.41042137 C393.71274015 129.11958708 393.71727126 129.82875279 393.72193968 130.55940837 C393.73457501 132.92987194 393.73296389 135.30010551 393.73131084 137.67059898 C393.73729667 139.37262326 393.74410234 141.07464483 393.75166607 142.77666283 C393.76932848 147.3966058 393.77402157 152.01647467 393.77529764 156.63644814 C393.77671974 159.5242453 393.78099048 162.41202365 393.78629208 165.29981613 C393.80479364 175.3785007 393.81296259 185.45713237 393.81138897 195.53583336 C393.81018776 204.92382589 393.83128574 214.31158845 393.8628763 223.69952279 C393.88904778 231.76508565 393.89975589 239.83057344 393.89847815 247.89617842 C393.89796874 252.71092259 393.90364008 257.52546239 393.92483425 262.34016418 C393.94423115 266.87024543 393.94433122 271.39992768 393.92980099 275.93002319 C393.92771354 277.58921963 393.93240999 279.24844114 393.9445219 280.90759468 C394.06107583 297.98480808 394.06107583 297.98480808 387.47593975 305.49945641 C386.82496319 306.03828453 386.17398663 306.57711266 385.5032835 307.13226891 C384.85488506 307.68656578 384.20648663 308.24086266 383.53843975 308.81195641 C378.71336062 312.13649882 374.36950839 312.52511278 368.6282835 312.38226891 C367.93541241 312.37324547 367.24254131 312.36422203 366.52867413 312.35492516 C364.83255955 312.33153047 363.13662479 312.29566531 361.4407835 312.25726891 C361.44447067 313.02810814 361.44815784 313.79894737 361.45195675 314.59314537 C361.54036035 333.36426857 361.60651868 352.13535011 361.64803219 370.90663719 C361.66864232 379.9843653 361.69673323 389.06195431 361.74254131 398.13959312 C361.78245659 406.05325795 361.80822758 413.96682202 361.81713748 421.88058472 C361.82234431 426.06946477 361.83454974 430.25805658 361.86370373 434.4468441 C361.89094712 438.3932661 361.89921062 442.33928239 361.89321423 446.28578949 C361.89431049 447.73052809 361.9022114 449.1752809 361.9176054 450.6199379 C362.0103955 459.78078012 361.71775904 466.37658509 355.47593975 473.49945641 C354.82496319 474.03828453 354.17398663 474.57711266 353.5032835 475.13226891 C352.85488506 475.68656578 352.20648663 476.24086266 351.53843975 476.81195641 C347.43406483 479.63992423 343.82835544 480.50727643 338.881567 480.51453781 C337.21245483 480.52421115 337.21245483 480.52421115 335.50962323 480.53407991 C333.68367264 480.5294341 333.68367264 480.5294341 331.82083416 480.52469444 C330.52363691 480.52922556 329.22643966 480.53375667 327.88993341 480.53842509 C324.290949 480.55066088 320.6920575 480.55039395 317.09305704 480.54803634 C313.2108688 480.54762832 309.32871041 480.55866592 305.44653606 480.56815147 C297.84114461 480.58476567 290.23578415 480.59026121 282.63037606 480.59137623 C276.44825532 480.59232652 270.2661448 480.59643584 264.08402729 480.60277748 C246.55675411 480.62039112 229.02950543 480.62961617 211.50222334 480.62811653 C210.55728755 480.62803662 209.61235176 480.62795671 208.63878155 480.62787437 C207.69269204 480.62779261 206.74660253 480.62771085 205.77184365 480.62762661 C190.43892308 480.6268137 175.10610074 480.64595232 159.77320858 480.67415111 C144.02967188 480.70287665 128.2861831 480.71669158 112.54261953 480.71496356 C103.70373786 480.71429953 94.86495918 480.7197971 86.02610111 480.74131966 C78.50043333 480.75952714 70.9749152 480.76388239 63.44923493 480.75030081 C59.61022416 480.74376889 55.77150054 480.74366175 51.93251705 480.76100731 C47.76868845 480.77962695 43.60552521 480.76718945 39.44168377 480.75174522 C38.23107554 480.76203235 37.02046731 480.77231948 35.77317399 480.78291833 C27.81778748 480.71762055 22.3500417 479.68297775 16.198596 474.29242516 C15.65976788 473.64144859 15.12093975 472.99047203 14.5657835 472.31976891 C14.01148663 471.67137047 13.45718975 471.02297203 12.886096 470.35492516 C9.5403507 465.4990732 9.17193527 461.22636129 9.3157835 455.44476891 C9.32480694 454.75189781 9.33383038 454.05902672 9.34312725 453.34515953 C9.36652193 451.64904495 9.40238709 449.9531102 9.4407835 448.25726891 C8.4507835 448.30367516 7.4607835 448.35008141 6.4407835 448.39789391 C-7.92155294 448.8780936 -7.92155294 448.8780936 -13.5592165 444.25726891 C-18.56321584 439.48253647 -22.26147252 435.10131038 -22.81221616 427.99090165 C-22.81362501 426.7395031 -22.81503386 425.48810455 -22.8164854 424.19878483 C-22.81999148 423.49642567 -22.82349755 422.79406652 -22.82710987 422.07042375 C-22.83643193 419.71113325 -22.83149853 417.35208914 -22.82664204 414.99278831 C-22.83037789 413.28650518 -22.83497915 411.58022376 -22.84037268 409.87394506 C-22.85262609 405.18041558 -22.85233946 400.48695726 -22.84998393 395.79341543 C-22.84957636 390.73330544 -22.86060923 385.67321844 -22.87009907 380.61311913 C-22.88672283 370.69763586 -22.89220923 360.78217638 -22.89332382 350.86668035 C-22.89427364 342.80813013 -22.89838059 334.74958777 -22.90472507 326.69104004 C-22.92234117 303.85136534 -22.93156336 281.01170945 -22.93006413 258.17202791 C-22.92998421 256.94034054 -22.9299043 255.70865318 -22.92982197 254.43964195 C-22.92974021 253.20645343 -22.92965845 251.9732649 -22.92957421 250.70270703 C-22.92876118 230.71389725 -22.94790206 210.7251628 -22.9760987 190.73637482 C-23.00481204 170.21966737 -23.01863985 149.70299668 -23.01691115 129.18626863 C-23.01624672 117.66461177 -23.02176237 106.14303389 -23.04326725 94.62139511 C-23.06145863 84.81203512 -23.06584318 75.00278991 -23.0522484 65.19342037 C-23.04570847 60.18788054 -23.04563856 55.18256102 -23.0629549 50.17704201 C-23.07864529 45.59442376 -23.07586332 41.01220125 -23.05838664 36.42959289 C-23.05530784 34.77213951 -23.05898217 33.11465689 -23.07010679 31.45723798 C-23.12976293 21.93853854 -23.15512129 14.50189982 -16.59437275 7.01508141 C-15.94339619 6.47625328 -15.29241962 5.93742516 -14.6217165 5.38226891 C-13.97331806 4.82797203 -13.32491962 4.27367516 -12.65687275 3.70258141 C-8.55249783 0.87461358 -4.94678844 0.00726138 0 0 Z " fill="#000000" transform="translate(70.55921649932861,15.742731094360352)"/>
<path d="M0 0 C1.20205078 0.01611328 2.40410156 0.03222656 3.64257812 0.04882812 C5.51139648 0.11166992 5.51139648 0.11166992 7.41796875 0.17578125 C8.68318359 0.19833984 9.94839844 0.22089844 11.25195312 0.24414062 C14.37099494 0.30299047 17.48762777 0.38516755 20.60546875 0.48828125 C20.61759903 1.41456329 20.61759903 1.41456329 20.62997437 2.35955811 C20.71599462 8.78353563 20.81549732 15.20720368 20.92285156 21.63085938 C20.9611478 24.02859299 20.99599951 26.42638418 21.02734375 28.82421875 C21.0729798 32.26974067 21.13097745 35.71486597 21.19140625 39.16015625 C21.20295746 40.23320007 21.21450867 41.3062439 21.22640991 42.4118042 C21.2462796 43.41253967 21.26614929 44.41327515 21.28662109 45.44433594 C21.29994476 46.32369812 21.31326843 47.2030603 21.32699585 48.10906982 C21.6275907 50.67728638 22.2276095 52.309718 23.60546875 54.48828125 C26.49408584 55.9325898 28.40194576 55.86516631 31.60546875 55.48828125 C36.39277014 51.92849304 39.03506309 46.78716614 42.0546875 41.71875 C42.56644531 40.98269531 43.07820313 40.24664062 43.60546875 39.48828125 C44.26546875 39.48828125 44.92546875 39.48828125 45.60546875 39.48828125 C47.35110593 41.93866047 48.99537093 44.38872712 50.60546875 46.92578125 C51.49705835 48.32302953 52.39270713 49.71769839 53.29296875 51.109375 C53.68871094 51.73255615 54.08445312 52.3557373 54.4921875 52.99780273 C55.55116285 54.64820055 55.55116285 54.64820055 57.60546875 55.48828125 C61.65688994 55.7468826 63.14884544 55.79269679 66.60546875 53.48828125 C67.5778882 50.57102291 67.75714694 48.60024686 67.81079102 45.55786133 C67.83073624 44.55705032 67.85068146 43.55623932 67.87123108 42.52510071 C67.88794357 41.4468956 67.90465607 40.36869049 67.921875 39.2578125 C67.95304665 37.59947639 67.95304665 37.59947639 67.98484802 35.90763855 C68.05029207 32.37208335 68.10920478 28.83645319 68.16796875 25.30078125 C68.21115885 22.90559117 68.25477329 20.5104087 68.29882812 18.11523438 C68.40596823 12.23966283 68.50774432 6.36401653 68.60546875 0.48828125 C98.33055724 0.4198581 128.05564309 0.36675978 157.78079335 0.33508526 C161.28932786 0.3313331 164.79786221 0.32745013 168.30639648 0.32348633 C169.35413494 0.32230593 169.35413494 0.32230593 170.42303983 0.32110169 C181.73610757 0.30804423 193.04912962 0.28438853 204.36217024 0.25682286 C215.96854988 0.22877809 227.57490284 0.21233155 239.18131477 0.20601577 C245.70124629 0.20209928 252.22107416 0.19287222 258.74097252 0.17109108 C264.87468458 0.15076563 271.00825003 0.14443951 277.14199257 0.14895821 C279.39586813 0.14813124 281.64974848 0.14214228 283.90359497 0.13066483 C286.97612849 0.11578263 290.04810537 0.11931225 293.12065125 0.1275177 C294.01656894 0.11877918 294.91248663 0.11004065 295.83555335 0.10103732 C300.57112359 0.13532079 303.77644845 0.37317453 307.60546875 3.48828125 C309.1642643 6.60587236 308.73499008 9.91342611 308.71899414 13.33447266 C308.71914017 14.14431107 308.71928619 14.95414948 308.71943665 15.78852844 C308.71873852 18.47232721 308.71095079 21.15605706 308.703125 23.83984375 C308.70126046 25.69786542 308.69983673 27.55588758 308.69883728 29.41390991 C308.6950149 34.30970613 308.68518698 39.2054728 308.6741333 44.10125732 C308.66391319 49.09484456 308.65933837 54.08843657 308.65429688 59.08203125 C308.64356448 68.88412759 308.62649139 78.68620196 308.60546875 88.48828125 C307.30379509 88.48974781 306.00212143 88.49121437 304.66100311 88.49272537 C273.75383278 88.52843632 242.84677563 88.58469038 211.93969473 88.6662022 C208.13460156 88.67621952 204.32950796 88.68606367 200.52441406 88.69580078 C199.76689639 88.69774215 199.00937873 88.69968353 198.22890598 88.70168373 C185.96731418 88.73269501 173.7057411 88.74968194 161.44411749 88.76147547 C148.86020741 88.77389156 136.27639545 88.80140327 123.69254732 88.84289432 C115.92917721 88.86801668 108.16596984 88.88139946 100.40255851 88.87971082 C94.44705278 88.87967752 88.49173672 88.90065884 82.53629684 88.92944908 C80.09503467 88.93796845 77.65373781 88.93968426 75.21246719 88.93408394 C71.87805765 88.92745357 68.54463713 88.94534327 65.21032715 88.96929932 C64.24532901 88.9615389 63.28033088 88.95377848 62.28609037 88.9457829 C55.12059235 89.03685283 49.79977104 90.68909301 44.36328125 95.453125 C43.82445312 96.10410156 43.285625 96.75507813 42.73046875 97.42578125 C42.17617187 98.07417969 41.621875 98.72257812 41.05078125 99.390625 C37.86766057 104.01045149 37.35300866 107.96310506 37.33804321 113.52081299 C37.3335121 114.21702247 37.32898099 114.91323196 37.32431257 115.6305387 C37.31167943 117.95721098 37.31328822 120.28364884 37.31494141 122.61035156 C37.30895539 124.2811971 37.30214967 125.95203988 37.29458618 127.62287903 C37.27692436 132.15818137 37.27223066 136.69340824 37.27095461 141.22874165 C37.26953231 144.06428371 37.26526118 146.89980663 37.25996017 149.73534393 C37.24145781 159.63363359 37.23328964 169.5318694 37.23486328 179.43017578 C37.23606406 188.64660303 37.21497477 197.86279585 37.18337595 207.07916379 C37.15719151 214.99952074 37.14649693 222.91980125 37.1477741 230.84020114 C37.14828319 235.56722934 37.1426298 240.29404928 37.121418 245.02103424 C37.10199958 249.46986404 37.10193567 253.91828774 37.11645126 258.36713219 C37.11853615 259.99527011 37.11385761 261.62343369 37.10173035 263.25152779 C37.03518515 272.80820156 37.13402975 281.16344634 43.5703125 288.828125 C44.54677734 289.61896484 44.54677734 289.61896484 45.54296875 290.42578125 C46.19136719 290.97105469 46.83976562 291.51632812 47.5078125 292.078125 C53.14159265 295.86545206 58.26456915 295.77983799 64.8495636 295.76675415 C65.89105802 295.77254655 66.93255245 295.77833895 68.00560731 295.78430688 C71.5002701 295.80133079 74.99480102 295.80418549 78.48950195 295.80712891 C80.992674 295.81642542 83.49584294 295.82659367 85.99900818 295.83757019 C91.39063469 295.85924822 96.78222654 295.87485295 102.17388344 295.88493729 C109.96928721 295.89952799 117.76462494 295.92506591 125.55998995 295.95326857 C138.20770042 295.99872945 150.8554204 296.03534717 163.50317383 296.06640625 C175.78867259 296.09659468 188.07414808 296.13094629 200.35961914 296.17089844 C201.49569403 296.17459076 201.49569403 296.17459076 202.65471993 296.17835768 C206.45432108 296.19073233 210.25392196 296.20318886 214.05352271 296.21568608 C245.57080648 296.31924334 277.0881159 296.40830277 308.60546875 296.48828125 C308.67557315 311.26564507 308.72846391 326.04298685 308.76090527 340.82048321 C308.77636924 347.68205514 308.79744966 354.54352371 308.83178711 361.4050293 C308.86490035 368.02506594 308.88231557 374.64502331 308.89010048 381.26514626 C308.89564934 383.79254663 308.9064847 386.31994105 308.92265892 388.84729576 C308.94439276 392.38359728 308.9474373 395.91945313 308.94604492 399.45581055 C308.96222366 401.02782227 308.96222366 401.02782227 308.97872925 402.6315918 C308.93984701 411.7401478 308.93984701 411.7401478 305.60546875 415.48828125 C302.58602063 416.49476396 300.57824034 416.61550253 297.421731 416.61970901 C295.80191762 416.62547073 295.80191762 416.62547073 294.14938074 416.63134885 C292.95854472 416.63048237 291.7677087 416.62961588 290.54078674 416.62872314 C289.27922805 416.63169427 288.01766936 416.63466539 286.71788162 416.63772655 C283.20929175 416.64580433 279.70072232 416.64758655 276.19212425 416.64832401 C272.41087346 416.65017317 268.62963332 416.65771972 264.84838867 416.66445923 C256.57790182 416.67804768 248.30741981 416.68406781 240.03692365 416.68846989 C234.87539838 416.69123093 229.71387499 416.69546798 224.552351 416.69997406 C210.26841251 416.71216642 195.98447554 416.72246644 181.70053196 416.72584915 C180.78615169 416.72606872 179.87177143 416.72628828 178.92968267 416.7265145 C177.55479348 416.72684192 177.55479348 416.72684192 176.15212876 416.72717595 C174.29469716 416.72761942 172.43726557 416.72806598 170.57983398 416.72851562 C169.65847977 416.72873705 168.73712555 416.72895848 167.7878515 416.72918662 C152.8498126 416.73313687 137.91182241 416.75059794 122.97380234 416.77387515 C107.64619789 416.7975672 92.31861793 416.81004999 76.99099487 416.81121707 C68.38138071 416.81213494 59.77183006 416.81791544 51.16223335 416.83603668 C43.83295527 416.8514086 36.50376031 416.85657533 29.17446918 416.84829858 C25.43322286 416.84438197 21.69214409 416.84537067 17.9509182 416.85935593 C13.89953482 416.87436254 9.84853183 416.86625859 5.7971344 416.85577393 C4.6085291 416.86383033 3.4199238 416.87188673 2.19530016 416.88018727 C1.11281683 416.87359743 0.0303335 416.86700758 -1.08495235 416.86021805 C-2.02047591 416.86081514 -2.95599947 416.86141222 -3.91987222 416.86202741 C-6.88916978 416.41357631 -8.24257178 415.55767964 -10.39453125 413.48828125 C-11.53764491 410.05894027 -11.52466941 407.42651903 -11.53154564 403.80806923 C-11.53419747 403.12231434 -11.53684929 402.43655944 -11.53958148 401.7300241 C-11.54728572 399.41526812 -11.54783408 397.10056508 -11.5484314 394.78579712 C-11.55244525 393.11622623 -11.55688335 391.44665631 -11.56171095 389.77708757 C-11.57369042 385.17588199 -11.57932805 380.5746869 -11.58389211 375.97346878 C-11.58984281 371.01631734 -11.6014538 366.05917848 -11.61218262 361.10203552 C-11.63671593 349.12541125 -11.65133364 337.14878281 -11.66424268 325.17214113 C-11.66795346 321.79127399 -11.67192677 318.41040727 -11.67599535 315.02954054 C-11.70122693 294.04790435 -11.72328632 273.06626753 -11.7357235 252.08461952 C-11.73865332 247.2237307 -11.74161497 242.3628419 -11.74462891 237.50195312 C-11.74537496 236.2937622 -11.74612101 235.08557127 -11.74688967 233.8407685 C-11.75955251 214.25395083 -11.79278787 194.66722375 -11.83443074 175.08044846 C-11.87680541 154.98531821 -11.90041322 134.89023439 -11.90564406 114.79505956 C-11.90906288 103.50650603 -11.92087374 92.21809415 -11.9537468 80.9295845 C-11.98168689 71.31917296 -11.99277318 61.70893211 -11.98155133 52.0984831 C-11.9763495 47.19251087 -11.97935008 42.28689644 -12.00401688 37.38097572 C-12.02639594 32.89273906 -12.02585855 28.40511956 -12.006813 23.9168729 C-12.00399701 22.29036184 -12.00969967 20.66380993 -12.02462594 19.03736492 C-12.04364268 16.83087716 -12.03200787 14.62661058 -12.01256371 12.42017555 C-12.01392023 11.1934065 -12.01527676 9.96663745 -12.0166744 8.70269358 C-10.7107739 1.95552826 -6.44270198 -0.15267066 0 0 Z " fill="#E4E4E6" transform="translate(75.39453125,31.51171875)"/>
<path d="M0 0 C1.26256197 -0.00638882 2.52512395 -0.01277764 3.82594538 -0.01936007 C7.32833244 -0.0363619 10.83000525 -0.02216403 14.33235478 -0.00284529 C18.11020379 0.01257218 21.88796473 -0.00081766 25.66581726 -0.0105896 C33.06575777 -0.0251238 40.46542413 -0.01287456 47.86533868 0.00852364 C56.48063201 0.03252281 65.09586237 0.03081994 73.7111817 0.02821773 C89.08188482 0.0245266 104.45245869 0.04536133 119.82312012 0.07946777 C134.74209866 0.11255974 149.66094155 0.12672618 164.57995605 0.1204834 C180.8210805 0.11372083 197.06214809 0.11617583 213.30326414 0.1358428 C214.59126422 0.13740203 214.59126422 0.13740203 215.90528449 0.13899276 C217.62992809 0.14108367 219.35457166 0.14319465 221.0792152 0.14532593 C227.08620624 0.15222434 233.09317978 0.15289037 239.10017395 0.15144348 C246.41951933 0.15000442 253.73875402 0.15968274 261.05806267 0.18338984 C264.7933538 0.19525772 268.52849056 0.20236979 272.26379967 0.19655228 C276.3103843 0.19043614 280.35653411 0.20752865 284.40307617 0.22705078 C286.1795685 0.21905889 286.1795685 0.21905889 287.99194956 0.21090555 C289.61681103 0.22449051 289.61681103 0.22449051 291.27449799 0.23834991 C292.20855768 0.23992112 293.14261737 0.24149232 294.1049819 0.24311113 C297.24473219 0.70060974 299.14064798 1.77730529 301.70153809 3.62145996 C303.1287332 6.47585018 302.83412197 8.90011647 302.84197998 12.09236145 C302.84643666 13.10031219 302.84643666 13.10031219 302.85098338 14.12862557 C302.85968784 16.39097931 302.8611801 18.65328024 302.8626709 20.91564941 C302.86729786 22.53342808 302.87232235 24.15120565 302.87771606 25.76898193 C302.89085434 30.17195094 302.89728787 34.5749047 302.90172672 38.97789025 C302.90465532 41.72744659 302.90875973 44.47699873 302.9132309 47.22655296 C302.92690996 55.82559513 302.93657445 64.42462774 302.94043279 73.02368003 C302.94491387 82.95672896 302.96246236 92.8896403 302.99143338 102.82264739 C303.01303764 110.49574133 303.02313641 118.16879652 303.02447391 125.84192055 C303.02552289 130.42687176 303.03145045 135.0116937 303.04929352 139.59661293 C303.0657524 143.90990085 303.06794038 148.22296204 303.05915451 152.53627014 C303.05838294 154.11932163 303.06274258 155.7023852 303.07261276 157.28540611 C303.0853002 159.44707745 303.07947363 161.60794194 303.06903076 163.76960754 C303.07049732 164.97916768 303.07196388 166.18872782 303.07347488 167.43494129 C302.66268157 170.95435796 301.8712765 172.83942571 299.70153809 175.62145996 C296.68208997 176.62794267 294.67430968 176.74868124 291.51780033 176.75288773 C289.89798696 176.75864944 289.89798696 176.75864944 288.24545008 176.76452756 C287.05461406 176.76366108 285.86377804 176.76279459 284.63685608 176.76190186 C283.37529739 176.76487298 282.1137387 176.7678441 280.81395096 176.77090526 C277.30536108 176.77898304 273.79679166 176.78076526 270.28819358 176.78150272 C266.50694279 176.78335188 262.72570265 176.79089843 258.94445801 176.79763794 C250.67397115 176.81122639 242.40348914 176.81724652 234.13299298 176.8216486 C228.97146772 176.82440964 223.80994433 176.82864669 218.64842033 176.83315277 C204.36448185 176.84534514 190.08054487 176.85564515 175.7966013 176.85902786 C174.88222103 176.85924743 173.96784076 176.85946699 173.025752 176.85969321 C171.65086282 176.86002063 171.65086282 176.86002063 170.24819809 176.86035466 C168.3907665 176.86079813 166.53333491 176.8612447 164.67590332 176.86169434 C163.7545491 176.86191577 162.83319488 176.8621372 161.88392084 176.86236534 C146.94588194 176.86631558 132.00789175 176.88377665 117.06987167 176.90705386 C101.74226723 176.93074591 86.41468726 176.9432287 71.08706421 176.94439578 C62.47745005 176.94531365 53.86789939 176.95109415 45.25830269 176.96921539 C37.9290246 176.98458731 30.59982965 176.98975404 23.27053852 176.98147729 C19.52929219 176.97756068 15.78821342 176.97854938 12.04698753 176.99253464 C7.99560415 177.00754125 3.94460117 176.9994373 -0.10679626 176.98895264 C-1.29540156 176.99700904 -2.48400686 177.00506545 -3.7086305 177.01336598 C-4.79111383 177.00677614 -5.87359716 177.0001863 -6.98888302 176.99339676 C-7.92440658 176.99399385 -8.85993013 176.99459094 -9.82380289 176.99520612 C-12.79310045 176.54675502 -14.14650244 175.69085835 -16.29846191 173.62145996 C-17.43167553 170.22181913 -17.43581443 167.61614558 -17.45236206 164.03030396 C-17.45674431 163.35748237 -17.46112657 162.68466079 -17.46564162 161.99145067 C-17.47901862 159.73221264 -17.48520592 157.47301361 -17.49133301 155.21374512 C-17.49923467 153.59581832 -17.50750367 151.97789328 -17.51611328 150.35997009 C-17.54232007 145.04350464 -17.5576369 139.72703136 -17.57189941 134.41052246 C-17.57725914 132.58084483 -17.58263665 130.75116725 -17.58803177 128.92148972 C-17.60965613 121.31238042 -17.62839418 113.70327325 -17.63965416 106.09414101 C-17.65590364 95.18490544 -17.68911057 84.27602544 -17.74605501 73.36692393 C-17.78472352 65.69805887 -17.80428302 58.02928904 -17.80957472 50.36032903 C-17.81323167 45.77863835 -17.82528954 41.19732702 -17.85767746 36.61574173 C-17.88770491 32.30643737 -17.89408921 27.99774299 -17.8822937 23.6883564 C-17.88207254 22.10689968 -17.89041324 20.52541508 -17.90794754 18.94405556 C-17.93059321 16.78416145 -17.92236934 14.62648814 -17.90646362 12.46658325 C-17.91142884 10.65419127 -17.91142884 10.65419127 -17.91649437 8.80518532 C-17.29846191 5.62145996 -17.29846191 5.62145996 -15.52911568 2.732481 C-10.53877635 -0.52837952 -5.84035916 -0.06173012 0 0 Z " fill="#95C7EE" transform="translate(145.2984619140625,135.3785400390625)"/>
<path d="M0 0 C5.28 0 10.56 0 16 0 C16.06943882 18.94966087 16.12297971 37.89928583 16.15543652 56.84904766 C16.17090716 65.64770017 16.19200043 74.4462722 16.22631836 83.24487305 C16.25621469 90.91349793 16.27557357 98.58206453 16.28226548 106.25074607 C16.28617735 110.31148577 16.29537482 114.37205871 16.31719017 118.43274498 C16.33755907 122.2551757 16.34383302 126.07737101 16.33932304 129.89985085 C16.34014807 131.30230107 16.34611148 132.7047592 16.35761642 134.10716248 C16.37256493 136.02338457 16.36716072 137.93973309 16.36076355 139.85600281 C16.36352893 140.92804805 16.36629431 142.00009329 16.36914349 143.10462475 C15.94221375 146.45324619 15.04221417 148.327873 13 151 C9.98341017 152.00552994 7.97262134 152.12915208 4.81905556 152.13701439 C3.73979667 152.14208893 2.66053779 152.14716347 1.54857409 152.15239179 C-0.23665676 152.15313843 -0.23665676 152.15313843 -2.05795288 152.15390015 C-3.31880601 152.1582824 -4.57965913 152.16266465 -5.87871993 152.1671797 C-9.38537421 152.1791483 -12.89201474 152.18479428 -16.39868546 152.18936086 C-20.17791395 152.19531566 -23.95712599 152.20692561 -27.73634338 152.21765137 C-36.86533207 152.24217498 -45.9943262 152.25680081 -55.12333769 152.26971143 C-57.70077626 152.27342287 -60.2782143 152.27739612 -62.85565233 152.2814641 C-78.85480431 152.30669596 -94.85395713 152.32875305 -110.85312462 152.34119225 C-114.55898415 152.34412202 -118.26484366 152.34708368 -121.97070312 152.35009766 C-122.89179503 152.35084371 -123.81288694 152.35158976 -124.76189072 152.35235842 C-139.69282318 152.36502005 -154.62363677 152.39825436 -169.55451362 152.43989949 C-184.87647169 152.48228598 -200.19836883 152.50588331 -215.52038538 152.51111281 C-224.12617321 152.51453025 -232.73177514 152.52632486 -241.33750534 152.55921555 C-248.66422789 152.5871719 -255.99072644 152.59823482 -263.31749819 152.58702008 C-267.05695955 152.58182237 -270.79595147 152.58479148 -274.53534508 152.60948563 C-278.5865849 152.63601643 -282.63678499 152.62395623 -286.68807983 152.60800171 C-287.87377229 152.6218838 -289.05946475 152.63576588 -290.28108728 152.65006864 C-295.00743295 152.60399411 -298.11307071 152.50199273 -302.26949501 150.14949989 C-304.82457207 145.49928797 -304.40917946 141.19203276 -304 136 C-303.40210238 135.99902319 -302.80420476 135.99804638 -302.18818903 135.99703997 C-266.74833145 135.9387622 -231.30853928 135.86496107 -195.86875787 135.77101372 C-191.61302638 135.75974562 -187.35729455 135.74860715 -183.1015625 135.73754883 C-181.83070833 135.7342433 -181.83070833 135.7342433 -180.53418034 135.730871 C-166.81762527 135.695503 -153.10107025 135.67063606 -139.3844865 135.64965298 C-125.30897692 135.62788697 -111.23352649 135.59482893 -97.15806723 135.55129844 C-88.47344191 135.52479552 -79.78889029 135.50709014 -71.10422653 135.50065396 C-65.14803365 135.49539592 -59.19193349 135.47916496 -53.23579031 135.45433434 C-49.79990193 135.44033357 -46.36417948 135.43114318 -42.9282608 135.43499184 C-39.19990425 135.43664148 -35.47206066 135.41997037 -31.74377441 135.39872742 C-30.12118454 135.40599878 -30.12118454 135.40599878 -28.46581507 135.41341704 C-20.03405505 135.33409524 -12.93916112 133.8705727 -6.66193008 127.85249233 C-0.80912866 121.32858988 -0.41441923 113.61315413 -0.45410156 105.23803711 C-0.44376389 104.09555511 -0.43342621 102.95307312 -0.42277527 101.77597046 C-0.3934443 98.02628269 -0.39185008 94.27713701 -0.390625 90.52734375 C-0.3756369 87.91702755 -0.35890843 85.30672082 -0.34051514 82.69642639 C-0.30008797 76.54497481 -0.27964591 70.39362888 -0.26654124 64.24206501 C-0.2506259 57.23343104 -0.21219147 50.22497571 -0.17194796 43.2164458 C-0.08973117 28.81103115 -0.03632419 14.40560173 0 0 Z " fill="#C5C4C9" transform="translate(400,328)"/>
<path d="M0 0 C1.15048828 -0.01611328 2.30097656 -0.03222656 3.48632812 -0.04882812 C11.92422139 -0.05366359 18.86292955 0.6850963 25.4375 6.5 C26.06140625 7.02980469 26.6853125 7.55960938 27.328125 8.10546875 C33.57257457 15.51747297 33.78075021 22.33386242 33.71875 31.68359375 C33.72449036 33.59894676 33.72449036 33.59894676 33.73034668 35.55299377 C33.73306118 38.24560532 33.72777075 40.93674993 33.70898438 43.62915039 C33.68621808 47.05649415 33.69931828 50.482583 33.72327423 53.90988064 C33.74132151 57.20949463 33.72863166 60.50896328 33.71875 63.80859375 C33.72684692 65.02759872 33.73494385 66.2466037 33.74328613 67.50254822 C33.65214044 75.84984141 32.47505228 82.33219178 27.07421875 88.87109375 C26.34847656 89.49113281 25.62273437 90.11117187 24.875 90.75 C24.15699219 91.38808594 23.43898438 92.02617187 22.69921875 92.68359375 C15.79217898 97.1629648 8.22241215 96.67852711 0.25 96.6875 C-1.46219727 96.72423828 -1.46219727 96.72423828 -3.20898438 96.76171875 C-11.5163247 96.79051369 -16.97746222 95.66054885 -23.2734375 90.1640625 C-23.90507812 89.42929687 -24.53671875 88.69453125 -25.1875 87.9375 C-25.83460938 87.20789063 -26.48171875 86.47828125 -27.1484375 85.7265625 C-30.25987187 81.21279151 -31.06224473 76.7489178 -31.10302734 71.34228516 C-31.11578705 70.18733551 -31.12854675 69.03238586 -31.14169312 67.84243774 C-31.14391876 66.60794891 -31.14614441 65.37346008 -31.1484375 64.1015625 C-31.1550943 62.81945892 -31.1617511 61.53735535 -31.16860962 60.21640015 C-31.18054805 57.50816479 -31.18429398 54.80005666 -31.18310547 52.09179688 C-31.1829024 48.63972887 -31.21020588 45.18848522 -31.24464989 41.73661232 C-31.27237633 38.42075148 -31.27107079 35.10503754 -31.2734375 31.7890625 C-31.28780853 30.55862213 -31.30217957 29.32818176 -31.31698608 28.06045532 C-31.27295976 19.75173025 -30.29236085 14.23434676 -24.62890625 7.8515625 C-23.51322266 6.90410156 -23.51322266 6.90410156 -22.375 5.9375 C-21.63378906 5.29039062 -20.89257812 4.64328125 -20.12890625 3.9765625 C-13.82584737 -0.55143595 -7.47112099 -0.02071858 0 0 Z " fill="#000101" transform="translate(278.8125,175.6875)"/>
<path d="M0 0 C2.64 0 5.28 0 8 0 C8.07007936 17.90658811 8.1229829 35.81314063 8.15543652 53.71983624 C8.17090578 62.03421805 8.19199641 70.34851467 8.22631836 78.6628418 C8.25621893 85.90956501 8.27557457 93.15622652 8.28226548 100.40300971 C8.28617664 104.2401883 8.29536953 108.07719035 8.31719017 111.91431236 C8.3375658 115.52662808 8.34383168 119.13869467 8.33932304 122.75106239 C8.34054075 124.70748701 8.35667728 126.66388455 8.3732605 128.62023926 C8.36913651 129.78826584 8.36501251 130.95629242 8.36076355 132.15971375 C8.36352893 133.17276423 8.36629431 134.18581472 8.36914349 135.22956371 C7.93289033 138.50366073 6.98737018 140.37697563 5 143 C1.98055188 144.00648271 -0.02722841 144.12722128 -3.18373775 144.13142776 C-4.80355113 144.13718948 -4.80355113 144.13718948 -6.45608801 144.1430676 C-7.64692403 144.14220112 -8.83776005 144.14133463 -10.06468201 144.14044189 C-11.3262407 144.14341302 -12.58779939 144.14638414 -13.88758713 144.1494453 C-17.396177 144.15752308 -20.90474643 144.1593053 -24.4133445 144.16004276 C-28.19459529 144.16189192 -31.97583543 144.16943847 -35.75708008 144.17617798 C-44.02756693 144.18976643 -52.29804894 144.19578656 -60.5685451 144.20018864 C-65.73007037 144.20294968 -70.89159376 144.20718673 -76.05311775 144.21169281 C-90.33705624 144.22388517 -104.62099321 144.23418519 -118.90493679 144.2375679 C-119.81931706 144.23778747 -120.73369732 144.23800703 -121.67578608 144.23823325 C-123.05067527 144.23856067 -123.05067527 144.23856067 -124.45333999 144.2388947 C-126.31077159 144.23933817 -128.16820318 144.23978473 -130.02563477 144.24023438 C-130.94698898 144.2404558 -131.8683432 144.24067723 -132.81761725 144.24090537 C-147.75565615 144.24485562 -162.69364634 144.26231669 -177.63166641 144.2855939 C-192.95927086 144.30928595 -208.28685082 144.32176874 -223.61447388 144.32293582 C-232.22408804 144.32385369 -240.83363869 144.32963419 -249.4432354 144.34775543 C-256.77251348 144.36312735 -264.10170844 144.36829408 -271.43099957 144.36001733 C-275.17224589 144.35610072 -278.91332466 144.35708942 -282.65455055 144.37107468 C-286.70593393 144.38608129 -290.75693692 144.37797734 -294.80833435 144.36749268 C-295.99693965 144.37554908 -297.18554495 144.38360548 -298.41016859 144.39190602 C-299.49265192 144.38531618 -300.57513525 144.37872633 -301.6904211 144.3719368 C-302.62594466 144.37253389 -303.56146822 144.37313097 -304.52534097 144.37374616 C-307.54641598 143.91747515 -308.91540569 143.23592942 -311 141 C-311.25 138.3125 -311.25 138.3125 -311 136 C-310.37209908 135.99902319 -309.74419817 135.99804638 -309.09726995 135.99703997 C-271.88718244 135.93877474 -234.67715585 135.86498312 -197.46714076 135.77101372 C-192.99982264 135.75974548 -188.5325042 135.74860704 -184.06518555 135.73754883 C-182.731135 135.7342433 -182.731135 135.7342433 -181.37013394 135.730871 C-166.96745106 135.69549344 -152.56476822 135.67063189 -138.16205799 135.64965298 C-123.38481723 135.62789459 -108.60763288 135.59484379 -93.8304401 135.55129844 C-84.71127348 135.5247824 -75.59217716 135.50708668 -66.47297389 135.50065396 C-60.22057459 135.49539994 -53.96826376 135.47918247 -47.71591186 135.45433434 C-44.10800178 135.44031982 -40.50025009 135.43114833 -36.8923111 135.43499184 C-32.97975997 135.43903345 -29.06751383 135.41999338 -25.15501404 135.39872742 C-24.01590134 135.40357499 -22.87678863 135.40842257 -21.70315737 135.41341704 C-15.69681354 135.35942482 -11.27284028 134.97053939 -6 132 C-1.62425332 127.50910209 -0.88534096 123.94773482 -0.84178162 117.84942627 C-0.8319928 116.80898666 -0.82220398 115.76854706 -0.81211853 114.69657898 C-0.80636307 113.56081924 -0.8006076 112.42505951 -0.79467773 111.25488281 C-0.78477814 110.05460953 -0.77487854 108.85433624 -0.76467896 107.61769104 C-0.738515 104.33085513 -0.71664311 101.04402423 -0.69667697 97.75714588 C-0.67478685 94.3204724 -0.64741299 90.88384272 -0.62062073 87.44720459 C-0.57073472 80.94144859 -0.52578074 74.43566822 -0.48259836 67.92986465 C-0.43319099 60.52238698 -0.37828586 53.11495325 -0.32291877 45.7075181 C-0.20916155 30.47171936 -0.10230892 15.23588018 0 0 Z " fill="#D7D6D9" transform="translate(408,336)"/>
<path d="M0 0 C1.15048828 -0.01611328 2.30097656 -0.03222656 3.48632812 -0.04882812 C13.31790579 -0.05446227 20.08784134 1.50838936 27.421875 8.3515625 C32.07864073 13.52345718 33.1875 17.32939133 33.1875 24.3125 C27.9075 24.3125 22.6275 24.3125 17.1875 24.3125 C16.1975 22.3325 15.2075 20.3525 14.1875 18.3125 C9.74842566 16.83280855 5.4007164 17.04691375 0.75 17 C-0.20455078 16.97099609 -1.15910156 16.94199219 -2.14257812 16.91210938 C-3.06361328 16.90373047 -3.98464844 16.89535156 -4.93359375 16.88671875 C-5.7733374 16.87213623 -6.61308105 16.85755371 -7.47827148 16.8425293 C-10.68337541 17.48784099 -11.75799533 18.80594143 -13.8125 21.3125 C-14.3996781 23.81535151 -14.3996781 23.81535151 -14.29833984 26.56835938 C-14.30756973 28.14018982 -14.30756973 28.14018982 -14.31698608 29.74377441 C-14.30261505 30.86989136 -14.28824402 31.9960083 -14.2734375 33.15625 C-14.27252106 34.3174939 -14.27160461 35.47873779 -14.2706604 36.6751709 C-14.26461999 39.12968026 -14.24886101 41.58418211 -14.22412109 44.03857422 C-14.18763947 47.79812752 -14.18310158 51.55669452 -14.18359375 55.31640625 C-14.1737617 57.70052936 -14.16210431 60.08464579 -14.1484375 62.46875 C-14.14621185 63.59486694 -14.14398621 64.72098389 -14.14169312 65.88122559 C-14.12255356 67.45305603 -14.12255356 67.45305603 -14.10302734 69.05664062 C-14.09540375 69.97723267 -14.08778015 70.89782471 -14.07992554 71.84631348 C-13.79554688 74.46884095 -13.22670652 76.09696567 -11.8125 78.3125 C-8.07092335 80.18328832 -3.55457312 79.49725528 0.5625 79.5 C1.5215625 79.51224609 2.480625 79.52449219 3.46875 79.53710938 C4.39429688 79.53904297 5.31984375 79.54097656 6.2734375 79.54296875 C7.1195459 79.54707764 7.9656543 79.55118652 8.83740234 79.55541992 C11.43395688 79.28702477 13.01961836 78.76127208 15.1875 77.3125 C16.07389389 74.65331834 16.36739025 72.83185359 16.50390625 70.08203125 C16.56674805 68.87836914 16.56674805 68.87836914 16.63085938 67.65039062 C16.67017578 66.81701172 16.70949219 65.98363281 16.75 65.125 C16.81477539 63.8575293 16.81477539 63.8575293 16.88085938 62.56445312 C16.98681518 60.48065567 17.0876502 58.39659897 17.1875 56.3125 C11.9075 56.3125 6.6275 56.3125 1.1875 56.3125 C1.1875 51.0325 1.1875 45.7525 1.1875 40.3125 C5.41705053 40.23156601 9.64505211 40.1720243 13.875 40.125 C15.07318359 40.09986328 16.27136719 40.07472656 17.50585938 40.04882812 C18.66279297 40.03916016 19.81972656 40.02949219 21.01171875 40.01953125 C22.07479248 40.0038208 23.13786621 39.98811035 24.2331543 39.97192383 C27.61227331 40.36146775 29.46740964 41.30454546 32.1875 43.3125 C34.40224147 47.74198295 33.45610372 53.71817115 33.48266602 58.64086914 C33.49412553 60.11785508 33.51448084 61.59480161 33.54418945 63.0715332 C33.74149254 72.88047263 33.58412117 80.98941891 27.07421875 88.87109375 C26.34847656 89.49113281 25.62273437 90.11117187 24.875 90.75 C24.15699219 91.38808594 23.43898438 92.02617187 22.69921875 92.68359375 C15.79217898 97.1629648 8.22241215 96.67852711 0.25 96.6875 C-1.46219727 96.72423828 -1.46219727 96.72423828 -3.20898438 96.76171875 C-11.5163247 96.79051369 -16.97746222 95.66054885 -23.2734375 90.1640625 C-23.90507812 89.42929687 -24.53671875 88.69453125 -25.1875 87.9375 C-25.83460938 87.20789063 -26.48171875 86.47828125 -27.1484375 85.7265625 C-30.25987187 81.21279151 -31.06224473 76.7489178 -31.10302734 71.34228516 C-31.11578705 70.18733551 -31.12854675 69.03238586 -31.14169312 67.84243774 C-31.14391876 66.60794891 -31.14614441 65.37346008 -31.1484375 64.1015625 C-31.1550943 62.81945892 -31.1617511 61.53735535 -31.16860962 60.21640015 C-31.18054805 57.50816479 -31.18429398 54.80005666 -31.18310547 52.09179688 C-31.1829024 48.63972887 -31.21020588 45.18848522 -31.24464989 41.73661232 C-31.27237633 38.42075148 -31.27107079 35.10503754 -31.2734375 31.7890625 C-31.28780853 30.55862213 -31.30217957 29.32818176 -31.31698608 28.06045532 C-31.27295976 19.75173025 -30.29236085 14.23434676 -24.62890625 7.8515625 C-23.51322266 6.90410156 -23.51322266 6.90410156 -22.375 5.9375 C-21.63378906 5.29039062 -20.89257812 4.64328125 -20.12890625 3.9765625 C-13.82584737 -0.55143595 -7.47112099 -0.02071858 0 0 Z " fill="#010101" transform="translate(358.8125,175.6875)"/>
<path d="M0 0 C5.28 0 10.56 0 16 0 C16 26.4 16 52.8 16 80 C26.56 80 37.12 80 48 80 C48 85.28 48 90.56 48 96 C41.9494088 96.07416805 35.89908235 96.12861087 29.84814453 96.16479492 C27.78982941 96.1798795 25.73154642 96.20034987 23.67333984 96.22631836 C20.71443756 96.26271585 17.75596033 96.27972966 14.796875 96.29296875 C13.41698395 96.31619453 13.41698395 96.31619453 12.00921631 96.33988953 C5.65442694 96.34156274 5.65442694 96.34156274 2.45019531 94.66918945 C-0.85989492 90.85924215 -0.13407027 86.14512571 -0.11352539 81.39770508 C-0.11367142 80.51944565 -0.11381744 79.64118622 -0.1139679 78.73631287 C-0.11327072 75.83069395 -0.10548739 72.92513898 -0.09765625 70.01953125 C-0.09579138 68.00599706 -0.0943678 65.99246242 -0.09336853 63.97892761 C-0.08954879 58.67708078 -0.07972312 53.37526131 -0.06866455 48.07342529 C-0.05843877 42.66418833 -0.0538684 37.25494696 -0.04882812 31.84570312 C-0.03810039 21.23045673 -0.02103046 10.61523064 0 0 Z " fill="#000000" transform="translate(184,176)"/>
<path d="M0 0 C0.90878906 0.00257813 1.81757813 0.00515625 2.75390625 0.0078125 C4.15962891 0.05035156 4.15962891 0.05035156 5.59375 0.09375 C6.53089844 0.09117187 7.46804688 0.08859375 8.43359375 0.0859375 C13.39812377 0.15635637 17.12324427 0.27414685 21.09375 3.59375 C22.34331796 6.09288591 22.23417304 7.81015175 22.25488281 10.60668945 C22.26449036 11.65149979 22.2740979 12.69631012 22.28399658 13.77278137 C22.28824646 14.90608383 22.29249634 16.03938629 22.296875 17.20703125 C22.30257507 18.36873337 22.30827515 19.53043549 22.31414795 20.7273407 C22.32360796 23.18955573 22.33013589 25.65178348 22.33398438 28.11401367 C22.3436831 31.88027073 22.37469508 35.64598065 22.40625 39.41210938 C22.41278055 41.80208009 22.41803082 44.19205471 22.421875 46.58203125 C22.4342218 47.70926102 22.4465686 48.83649078 22.45928955 49.99787903 C22.45628845 51.05214584 22.45328735 52.10641266 22.45019531 53.19262695 C22.45566376 54.57923271 22.45566376 54.57923271 22.46124268 55.99385071 C22.01274027 59.16686932 21.00648083 61.03811993 19.09375 63.59375 C14.65414131 65.07361956 10.30697847 64.81872927 5.65625 64.84375 C4.70169922 64.864375 3.74714844 64.885 2.76367188 64.90625 C1.84263672 64.91140625 0.92160156 64.9165625 -0.02734375 64.921875 C-0.8670874 64.9312207 -1.70683105 64.94056641 -2.57202148 64.95019531 C-5.45882208 64.5093702 -6.8005102 63.59097064 -8.90625 61.59375 C-9.89874837 58.6162549 -10.05561356 56.57901066 -10.09912109 53.46728516 C-10.12321548 51.90018295 -10.12321548 51.90018295 -10.14779663 50.30142212 C-10.19227343 45.53363736 -10.23329304 40.76599045 -10.25634766 35.99804688 C-10.27292624 33.48200239 -10.30024082 30.96600536 -10.33837891 28.45019531 C-10.39307216 24.82331909 -10.41500922 21.19754524 -10.4296875 17.5703125 C-10.45235687 16.44621979 -10.47502625 15.32212708 -10.49838257 14.16397095 C-10.47737744 6.41768183 -10.47737744 6.41768183 -7.68017578 2.38232422 C-4.77641844 0.5100371 -3.40695047 -0.0293933 0 0 Z " fill="#95C7EE" transform="translate(273.90625,191.40625)"/>
<path d="M0 0 C80.85 0 161.7 0 245 0 C245 2.64 245 5.28 245 8 C215.07122341 8.11410368 185.14245414 8.20256934 155.21350685 8.25532665 C151.67879587 8.26158006 148.14408533 8.26805168 144.609375 8.2746582 C143.5538451 8.27662553 143.5538451 8.27662553 142.47699136 8.2786326 C131.08830915 8.30037936 119.69975334 8.33979679 108.31114608 8.38576398 C96.62226707 8.43254907 84.93345418 8.46029971 73.24448538 8.47044247 C66.68022355 8.47696247 60.11624827 8.49229291 53.55207825 8.52865028 C47.37314616 8.56259653 41.19461859 8.57305545 35.01560211 8.56553841 C32.74845939 8.56691354 30.48130309 8.57685375 28.21424103 8.59602737 C25.11616805 8.62094322 22.01961777 8.61490965 18.92150879 8.60127258 C17.57906719 8.62311889 17.57906719 8.62311889 16.20950556 8.64540654 C10.138031 8.5732797 5.56742815 7.16130792 1 3 C0.67 2.01 0.34 1.02 0 0 Z " fill="#D0D2D3" transform="translate(139,328)"/>
<path d="M0 0 C0.9549234 -0.00412399 1.9098468 -0.00824799 2.89370728 -0.01249695 C4.46247871 0.00368179 4.46247871 0.00368179 6.0629425 0.02018738 C7.16553406 0.0197493 8.26812561 0.01931122 9.40412903 0.01885986 C13.05661085 0.02095357 16.70863636 0.04431266 20.36103821 0.0677948 C22.89023589 0.07338867 25.41943682 0.07765975 27.94863892 0.08065796 C33.93038766 0.09095064 39.91193987 0.11460617 45.89360982 0.14470643 C52.70368379 0.17823182 59.51376559 0.19473174 66.32390153 0.20979273 C80.33246521 0.24115535 94.34088334 0.29392744 108.34931946 0.36076355 C108.34931946 3.00076355 108.34931946 5.64076355 108.34931946 8.36076355 C68.41931946 8.36076355 28.48931946 8.36076355 -12.65068054 8.36076355 C-11.00068054 6.71076355 -9.35068054 5.06076355 -7.65068054 3.36076355 C-6.89737347 2.47473717 -6.89737347 2.47473717 -6.12884808 1.57081127 C-4.0598692 -0.12288252 -2.65137264 -0.0088281 0 0 Z " fill="#BCBEC0" transform="translate(275.6506805419922,327.6392364501953)"/>
<path d="M0 0 C11 0 11 0 14.15698242 1.7722168 C16.950512 6.6646866 16.61941035 11.10719901 16.48828125 16.64453125 C16.48120651 17.7694548 16.47413177 18.89437836 16.46684265 20.0533905 C16.43889144 23.64044149 16.37614717 27.22592212 16.3125 30.8125 C16.28741827 33.24672222 16.26460489 35.68096895 16.24414062 38.11523438 C16.18906162 44.07742644 16.10277994 50.03844713 16 56 C10.72 56 5.44 56 0 56 C0 37.52 0 19.04 0 0 Z " fill="#C5C4C9" transform="translate(400,64)"/>
<path d="M0 0 C5 0 5 0 6.79121399 1.67901611 C8.20584393 4.39523988 8.36324209 6.08339846 8.34057617 9.13574219 C8.34034958 10.15649841 8.34012299 11.17725464 8.33988953 12.22894287 C8.32440567 13.32386047 8.30892181 14.41877808 8.29296875 15.546875 C8.28872391 16.6732135 8.28447906 17.799552 8.28010559 18.96002197 C8.26331497 22.55692463 8.22566099 26.15326672 8.1875 29.75 C8.17245371 32.18879399 8.15876521 34.62759677 8.14648438 37.06640625 C8.11341015 43.04446205 8.06320643 49.02219097 8 55 C5.36 55 2.72 55 0 55 C0 36.85 0 18.7 0 0 Z " fill="#D7D6D9" transform="translate(408,65)"/>
<path d="M0 0 C5.28 0 10.56 0 16 0 C16 6.93 16 13.86 16 21 C14.02 19.68 12.04 18.36 10 17 C7.45672892 16.33314062 7.45672892 16.33314062 5 17 C3.35 18.32 1.7 19.64 0 21 C0 14.07 0 7.14 0 0 Z " fill="#FD4F22" transform="translate(112,32)"/>
<path d="M0 0 C2.64 0 5.28 0 8 0 C8 2.64 8 5.28 8 8 C5.36 8 2.72 8 0 8 C0 5.36 0 2.72 0 0 Z " fill="#ACABB1" transform="translate(400,328)"/>
</svg>
